<svg id="Layer_1" data-name="Layer 1" xmlns="http://www.w3.org/2000/svg" width="41" height="41" viewBox="0 0 41 41">
<defs>
<style>.cls-1{fill:#e51a68;}.cls-2{isolation:isolate;}.cls-3{fill:#fff;}</style>
</defs>
<title>dribbble</title>
<g id="dribbble">
<path id="bg" class="cls-1" d="M0,0H41V41H0Z"/><g id="dribbble-2" class="cls-2">
<g class="cls-2">
<path class="cls-3" d="M20.71,31.79A10.72,10.72,0,1,1,31.42,21.07,10.72,10.72,0,0,1,20.71,31.79ZM21,19.48a33.58,33.58,0,0,1-9.38,1.3,1.46,1.46,0,0,0,0,.29,9.08,9.08,0,0,0,2.35,6.11,14.46,14.46,0,0,1,7.43-6L21.7,21C21.48,20.52,21.23,20,21,19.48ZM16.81,12.8a9.15,9.15,0,0,0-5,6.39,34.88,34.88,0,0,0,8.45-1.11A57.55,57.55,0,0,0,16.81,12.8Zm5.52,9.75-.06,0s-5.42,1.89-7.18,5.71a1.92,1.92,0,0,0-.21-.15,9.19,9.19,0,0,0,9.4,1.37A38.85,38.85,0,0,0,22.33,22.55ZM18.49,12.2h0Zm2.22-.27a9.12,9.12,0,0,0-2.16.26A43.73,43.73,0,0,1,22,17.52a10,10,0,0,0,4.77-3.31A9.07,9.07,0,0,0,20.71,11.93Zm7.07,3.33a11.83,11.83,0,0,1-5.1,3.62c.21.44.42.88.61,1.33.07.15.13.32.2.47a21.2,21.2,0,0,1,6.37.3A9.18,9.18,0,0,0,27.78,15.26ZM24,22.12a41.57,41.57,0,0,1,1.79,6.54,9.18,9.18,0,0,0,3.92-6.14A13.76,13.76,0,0,0,24,22.12Z"/>
</g></g></g>
</svg>