<svg id="Layer_1" data-name="Layer 1" xmlns="http://www.w3.org/2000/svg" width="41" height="41" viewBox="0 0 41 41"><defs><style>.cls-1{fill:#007bb6;}.cls-2{isolation:isolate;}.cls-3{fill:#fff;}</style></defs><title>in</title><g id="in"><path id="bg" class="cls-1" d="M0,0H41V41H0Z"/><g id="in-2" class="cls-2"><g class="cls-2"><path class="cls-3" d="M13.46,15h0A2.28,2.28,0,0,1,11,12.7a2.31,2.31,0,0,1,2.49-2.3,2.3,2.3,0,1,1,0,4.59Zm2.22,15.08H11.25V16.79h4.43Zm15.9,0H27.17V23c0-1.78-.64-3-2.24-3a2.41,2.41,0,0,0-2.26,1.61,3.2,3.2,0,0,0-.15,1.08v7.41H18.11c.06-12,0-13.28,0-13.28h4.41v1.93h0a4.39,4.39,0,0,1,4-2.23c2.91,0,5.08,1.9,5.08,6Z"/></g></g></g></svg>