<?xml version="1.0" encoding="utf-8"?>
<!-- Generator: Adobe Illustrator 24.2.3, SVG Export Plug-In . SVG Version: 6.00 Build 0)  -->
<svg version="1.1" id="Layer_1" xmlns="http://www.w3.org/2000/svg" xmlns:xlink="http://www.w3.org/1999/xlink" width="41" height="41" x="0px" y="0px"
	 viewBox="0 0 41 41" style="enable-background:new 0 0 41 41;" xml:space="preserve">
<style type="text/css">
	.st0{fill:#13578A;}
	.st1{enable-background:new    ;}
	.st2{fill:#FFFFFF;}
</style>
<path id="bg" class="st0" d="M0,0h41v41H0V0z"/>
<g class="st1">
	<path class="st2" d="M31.8,16.6c0,0.9,0.1,2.5,0.1,4.7c0,2.2,0,3.8-0.1,4.7c-0.1,2.1-0.7,3.7-1.9,4.8c-1.1,1.1-2.7,1.7-4.8,1.8
		c-0.9,0.1-2.5,0.1-4.7,0.1c-2.2,0-3.8,0-4.7-0.1c-2.1-0.1-3.7-0.7-4.8-1.8c-0.4-0.4-0.8-0.9-1.1-1.4c-0.3-0.5-0.5-1.1-0.6-1.6
		c-0.1-0.5-0.2-1.1-0.2-1.8c-0.1-0.9-0.1-2.5-0.1-4.7c0-2.2,0-3.8,0.1-4.7c0.1-2,0.7-3.6,1.8-4.7c1.1-1.2,2.7-1.8,4.8-1.9
		c0.9,0,2.5-0.1,4.7-0.1c2.2,0,3.8,0,4.7,0.1c2.1,0.1,3.7,0.7,4.8,1.9C31,12.9,31.6,14.5,31.8,16.6z M29.3,28c0.1-0.3,0.2-0.6,0.3-1
		c0.1-0.4,0.1-0.9,0.2-1.5c0-0.6,0.1-1.1,0.1-1.4c0-0.4,0-0.9,0-1.6c0-0.7,0-1.1,0-1.1c0-0.1,0-0.5,0-1.1s0-1.2,0-1.5
		c0-0.4,0-0.9-0.1-1.4c0-0.6-0.1-1.1-0.2-1.5c-0.1-0.4-0.2-0.8-0.3-1c-0.4-1-1.1-1.8-2.2-2.2c-0.3-0.1-0.6-0.2-1-0.3
		C25.7,12,25.2,12,24.6,12c-0.6,0-1.1-0.1-1.4-0.1s-0.9,0-1.6,0c-0.7,0-1.1,0-1.1,0c-0.1,0-0.4,0-1.1,0c-0.7,0-1.2,0-1.6,0
		c-0.4,0-0.9,0-1.4,0.1c-0.6,0-1.1,0.1-1.5,0.2c-0.4,0.1-0.8,0.2-1,0.3c-1,0.4-1.8,1.1-2.2,2.2c-0.1,0.3-0.2,0.6-0.3,1
		c-0.1,0.4-0.1,0.9-0.2,1.5c0,0.6-0.1,1.1-0.1,1.4s0,0.9,0,1.6c0,0.7,0,1.1,0,1.1c0,0.1,0,0.4,0,0.9c0,0.5,0,0.9,0,1.2
		c0,0.3,0,0.7,0,1.2c0,0.5,0,0.9,0.1,1.3c0,0.4,0.1,0.7,0.2,1.1c0.1,0.4,0.1,0.7,0.2,0.9c0.4,1,1.2,1.8,2.2,2.2
		c0.3,0.1,0.6,0.2,1,0.3c0.4,0.1,0.9,0.1,1.5,0.2c0.6,0,1.1,0.1,1.4,0.1s0.9,0,1.6,0c0.7,0,1.1,0,1.1,0c0.1,0,0.5,0,1.1,0
		s1.2,0,1.5,0c0.4,0,0.9,0,1.4-0.1c0.6,0,1.1-0.1,1.5-0.2c0.4-0.1,0.8-0.2,1-0.3C28.2,29.7,28.9,29,29.3,28z M16.3,17.1
		c1.1-1.1,2.5-1.7,4.1-1.7s3,0.6,4.1,1.7c1.1,1.1,1.7,2.5,1.7,4.1s-0.6,3-1.7,4.1c-1.1,1.1-2.5,1.7-4.1,1.7s-3-0.6-4.1-1.7
		c-1.1-1.1-1.7-2.5-1.7-4.1S15.2,18.2,16.3,17.1z M17.7,23.9c0.7,0.7,1.6,1.1,2.7,1.1c1,0,1.9-0.4,2.7-1.1c0.7-0.7,1.1-1.6,1.1-2.7
		c0-1-0.4-1.9-1.1-2.7c-0.7-0.7-1.6-1.1-2.7-1.1c-1,0-1.9,0.4-2.7,1.1c-0.7,0.7-1.1,1.6-1.1,2.7C16.6,22.3,17,23.2,17.7,23.9z
		 M27.5,14.2c0.3,0.3,0.4,0.6,0.4,0.9c0,0.4-0.1,0.7-0.4,1c-0.3,0.3-0.6,0.4-0.9,0.4c-0.4,0-0.7-0.1-1-0.4c-0.3-0.3-0.4-0.6-0.4-1
		c0-0.4,0.1-0.7,0.4-0.9c0.3-0.3,0.6-0.4,1-0.4C26.9,13.8,27.2,14,27.5,14.2z"/>
</g>
</svg>
