<?xml version="1.0" encoding="utf-8"?>
<!-- Generator: Adobe Illustrator 24.2.3, SVG Export Plug-In . SVG Version: 6.00 Build 0)  -->
<svg version="1.1" id="Layer_1" xmlns="http://www.w3.org/2000/svg" xmlns:xlink="http://www.w3.org/1999/xlink" x="0px" y="0px" width="14.58" height="14.58"
	 viewBox="0 0 14 14" style="enable-background:new 0 0 14 14;" xml:space="preserve">
<style type="text/css">
	.st0{enable-background:new    ;}
	.st1{fill:#2B2A2C;}
</style>
<g class="st0">
	<path class="st1" d="M12.7,1.5c0.4,0,0.7,0.1,0.9,0.4C13.9,2.1,14,2.4,14,2.8v7.9c0,0.4-0.1,0.7-0.4,0.9c-0.3,0.3-0.6,0.4-0.9,0.4
		H1.3c-0.4,0-0.7-0.1-0.9-0.4C0.1,11.4,0,11.1,0,10.7V2.8c0-0.4,0.1-0.7,0.4-0.9c0.3-0.3,0.6-0.4,0.9-0.4H12.7z M12.7,2.8H1.3v1.1
		C2,4.4,3.2,5.4,5,6.8c0,0,0.1,0.1,0.4,0.3C5.6,7.4,5.8,7.5,6,7.6c0.1,0.1,0.3,0.2,0.5,0.3C6.7,8,6.9,8.1,7,8.1
		c0.1,0,0.3-0.1,0.5-0.2C7.7,7.8,7.9,7.7,8,7.6c0.1-0.1,0.3-0.2,0.6-0.4C8.9,7,9,6.9,9,6.8c1.8-1.4,3.1-2.4,3.7-2.9V2.8z M1.3,10.7
		h11.4V5.6C12,6.1,11.1,6.9,9.8,7.9c0,0-0.2,0.1-0.4,0.3C9.2,8.4,9,8.5,8.9,8.6C8.8,8.7,8.6,8.8,8.3,9C8.1,9.1,7.9,9.2,7.7,9.3
		C7.4,9.3,7.2,9.4,7,9.4s-0.4,0-0.7-0.1C6.1,9.2,5.9,9.1,5.6,9C5.4,8.8,5.2,8.7,5.1,8.6C5,8.5,4.8,8.4,4.6,8.2
		C4.4,8,4.2,7.9,4.2,7.9C2.9,6.9,2,6.1,1.3,5.6V10.7z"/>
</g>
</svg>
