<svg id="Layer_1" data-name="Layer 1" xmlns="http://www.w3.org/2000/svg" width="33.42" height="33.42" viewBox="0 0 33.42 33.42"><defs><style>.cls-1{isolation:isolate;}.cls-2{fill:#2b2a2c;}</style></defs><title>modal-close</title><g id="button"><g id="close" class="cls-1"><g class="cls-1"><path class="cls-2" d="M17,35.79A16.72,16.72,0,1,1,33.71,19.07,16.72,16.72,0,0,1,17,35.79ZM24.87,23l-3.93-3.94,3.93-3.93a1.4,1.4,0,0,0,.42-1,1.44,1.44,0,0,0-.42-1l-1.95-2a1.48,1.48,0,0,0-1-.42,1.37,1.37,0,0,0-1,.42L17,15.14,13.06,11.2a1.4,1.4,0,0,0-1-.42,1.44,1.44,0,0,0-1,.42l-2,2a1.43,1.43,0,0,0-.41,1,1.39,1.39,0,0,0,.41,1l3.94,3.93L9.12,23a1.39,1.39,0,0,0-.41,1,1.43,1.43,0,0,0,.41,1l2,2a1.43,1.43,0,0,0,1,.41,1.39,1.39,0,0,0,1-.41L17,23,20.94,27a1.36,1.36,0,0,0,1,.41,1.47,1.47,0,0,0,1-.41l1.95-2a1.44,1.44,0,0,0,.42-1A1.4,1.4,0,0,0,24.87,23Z" transform="translate(-0.29 -2.36)"/></g></g></g></svg>