<svg id="Layer_1" data-name="Layer 1" xmlns="http://www.w3.org/2000/svg" width="14.58" height="14.58" viewBox="0 0 14.58 14.58"><defs><style>.cls-1{isolation:isolate;}.cls-2{fill:#2b2a2c;}</style></defs><title>phone</title><g id="phone" class="cls-1"><g class="cls-1"><path class="cls-2" d="M14.58,13.48a2.74,2.74,0,0,1-2.74,2.73H2.73A2.73,2.73,0,0,1,0,13.48V4.37A2.73,2.73,0,0,1,2.73,1.64h9.11a2.74,2.74,0,0,1,2.74,2.73Zm-2.45-1.89a10.57,10.57,0,0,0-1.71-1c-.18-.11-.4-.32-.62-.32-.41,0-1,1.25-1.4,1.25a1.47,1.47,0,0,1-.6-.27A7,7,0,0,1,5,8.41a1.62,1.62,0,0,1-.26-.59c0-.37,1.24-1,1.24-1.41,0-.22-.21-.44-.31-.62a11,11,0,0,0-1-1.71H4.47a3.18,3.18,0,0,0-1,.21A2.77,2.77,0,0,0,2.43,6.41a5.32,5.32,0,0,0,.47,1.8A9.64,9.64,0,0,0,8,13.31a5.23,5.23,0,0,0,1.8.48,2.77,2.77,0,0,0,2.14-1.09,3.11,3.11,0,0,0,.21-1A.41.41,0,0,0,12.13,11.59Z" transform="translate(0 -1.64)"/></g></g></svg>