<svg id="Layer_1" data-name="Layer 1" xmlns="http://www.w3.org/2000/svg" width="41" height="41" viewBox="0 0 41 41"><defs><style>.cls-1{fill:#56acef;}.cls-2{isolation:isolate;}.cls-3{fill:#fff;}</style></defs><title>twitter</title><g id="twitter"><path id="bg" class="cls-1" d="M0,0H41V41H0Z"/><g id="twitter-2" class="cls-2"><g class="cls-2"><path class="cls-3" d="M29.33,17.6a5.62,5.62,0,0,1,0,.58A12.83,12.83,0,0,1,9.61,29,9.83,9.83,0,0,0,10.7,29a9,9,0,0,0,5.59-1.92A4.51,4.51,0,0,1,12.08,24a6,6,0,0,0,.85.06,4.68,4.68,0,0,0,1.19-.15,4.5,4.5,0,0,1-3.61-4.42v-.06a4.48,4.48,0,0,0,2,.58,4.5,4.5,0,0,1-1.39-6,12.81,12.81,0,0,0,9.29,4.72,5.18,5.18,0,0,1-.12-1,4.51,4.51,0,0,1,7.8-3.08A8.61,8.61,0,0,0,31,13.48,4.54,4.54,0,0,1,29,16a8.93,8.93,0,0,0,2.59-.7A9.62,9.62,0,0,1,29.33,17.6Z"/></g></g></g></svg>